<svg width="16" height="16" viewBox="0 0 16 16" fill="none" xmlns="http://www.w3.org/2000/svg">
<path d="M9.73418 0.0593748C9.6498 0.0999994 9.1373 0.59375 8.16855 1.56563C6.75918 2.98125 6.7248 3.01875 6.69355 3.17188C6.65605 3.34375 6.6873 3.55625 6.76543 3.67812C6.8873 3.86562 7.12168 3.99687 7.32793 4C7.58418 4 7.71855 3.89687 8.54668 3.06562L9.32793 2.28125L9.34355 6.25625L9.35918 10.2344L9.44355 10.3531C9.4873 10.4219 9.57793 10.5125 9.64668 10.5562C9.7498 10.6281 9.79668 10.6406 9.9998 10.6406C10.2029 10.6406 10.2498 10.6281 10.3529 10.5562C10.4217 10.5125 10.5123 10.4219 10.5561 10.3531L10.6404 10.2344L10.6561 6.25625L10.6717 2.28125L11.4529 3.06562C12.2811 3.89687 12.4154 4 12.6717 4C12.8779 3.99687 13.1123 3.86562 13.2342 3.67812C13.3123 3.55625 13.3436 3.34375 13.3061 3.17188C13.2748 3.01875 13.2404 2.98125 11.8311 1.56563C10.8623 0.59375 10.3498 0.0999994 10.2654 0.0593748C10.1967 0.0281248 10.0779 0 9.9998 0C9.92168 0 9.80293 0.0281248 9.73418 0.0593748Z" fill="black"/>
<path d="M5.7248 5.39394C5.5873 5.46582 5.45918 5.59394 5.39355 5.72832C5.34668 5.82832 5.34355 6.18457 5.34355 9.78457V13.7346L4.54043 12.9314C3.69355 12.0846 3.58105 12.0002 3.32793 12.0002C3.12168 12.0002 2.8873 12.1346 2.76543 12.3221C2.6873 12.4439 2.65605 12.6564 2.69355 12.8283C2.7248 12.9814 2.75918 13.0189 4.16855 14.4346C5.1373 15.4064 5.6498 15.9002 5.73418 15.9408C5.89355 16.0158 6.10605 16.0158 6.26543 15.9408C6.3498 15.9002 6.8623 15.4064 7.83105 14.4346C9.24043 13.0189 9.2748 12.9814 9.30605 12.8283C9.34355 12.6564 9.3123 12.4439 9.23418 12.3221C9.1123 12.1346 8.87793 12.0033 8.67168 12.0002C8.41543 12.0002 8.28105 12.1033 7.45293 12.9346L6.67168 13.7189L6.65605 9.74394L6.64043 5.76582L6.55605 5.64707C6.42168 5.45019 6.26855 5.36269 6.03105 5.35019C5.8873 5.34394 5.79668 5.35644 5.7248 5.39394Z" fill="black"/>
</svg>
