<svg width="41" height="41" viewBox="0 0 41 41" fill="none" xmlns="http://www.w3.org/2000/svg">
<path d="M40.6626 5.60758C40.6382 5.58523 35.8223 1.10437 35.8223 1.10437C35.6382 0.932031 35.4477 0.753906 35.0922 0.753906H15.7037C15.1373 0.753906 14.6766 1.20336 14.6766 1.75586V4.83266L7.84311 5.97547C7.29538 6.06922 6.92702 6.58062 7.02191 7.11445L7.36873 9.08727C5.1476 9.81648 2.86722 10.5682 0.665788 11.3397C0.1456 11.5252 -0.127386 12.0895 0.0582352 12.6001L4.43731 24.4763C4.52539 24.7153 4.75626 24.8641 5.0025 24.8641C5.06993 24.8641 5.13863 24.853 5.20574 24.8294C5.51788 24.7198 5.67988 24.3842 5.56761 24.0797L1.25332 12.3791C3.32734 11.6546 5.4752 10.9455 7.57429 10.2562L9.63798 21.9941L12.0126 35.5123C12.0984 35.9894 12.5283 36.329 13.0136 36.329C13.0685 36.329 13.1243 36.3246 13.1802 36.3156L19.6117 35.2388L24.6374 34.3984L17.0788 37.0489L11.1181 39.1398L6.48899 26.5781C6.3768 26.2736 6.03287 26.1155 5.72064 26.225C5.4085 26.3344 5.2465 26.6701 5.35869 26.9746L10.0535 39.7148C10.2037 40.1154 10.5927 40.3644 11.0039 40.3644C11.1175 40.3644 11.2329 40.3454 11.3453 40.3053L17.485 38.1517L31.4261 33.2631L34.0894 32.8177H39.9729C40.5392 32.8177 40.9999 32.3673 40.9999 31.8135V6.26781C41 5.91711 40.805 5.7382 40.6626 5.60758ZM39.0713 5.74633H36.066L35.9915 5.74664C35.8476 5.74758 35.5107 5.75 35.4253 5.66719C35.4056 5.64805 35.3825 5.58414 35.3825 5.46547L35.3756 2.30805L39.0713 5.74633ZM39.7989 31.6457H15.8778V20.2264C15.8778 19.9028 15.6088 19.6405 15.2772 19.6405C14.9455 19.6405 14.6766 19.9028 14.6766 20.2264V31.8134C14.6766 32.367 15.1373 32.8176 15.7037 32.8176H26.9796L19.4086 34.0837L13.164 35.1292L10.8219 21.796L8.23782 7.09836L14.6765 6.02156V17.5077C14.6765 17.8312 14.9454 18.0936 15.2771 18.0936C15.6088 18.0936 15.8777 17.8312 15.8777 17.5077V1.9257H34.1735L34.1814 5.4668C34.1814 5.89602 34.3152 6.2432 34.579 6.49883C34.9845 6.89156 35.5576 6.91891 35.9134 6.91891C35.944 6.91891 35.973 6.91867 36.0001 6.91851L39.7989 6.91828V31.6457Z" fill="black"/>
<path d="M18.7734 9.85156C18.7734 10.1752 19.0423 10.4375 19.374 10.4375H36.5457C36.8773 10.4375 37.1462 10.1752 37.1462 9.85156C37.1462 9.52797 36.8773 9.26562 36.5457 9.26562H19.374C19.0423 9.26562 18.7734 9.52797 18.7734 9.85156Z" fill="black"/>
<path d="M36.5457 13.4297H19.374C19.0423 13.4297 18.7734 13.692 18.7734 14.0156C18.7734 14.3392 19.0423 14.6016 19.374 14.6016H36.5457C36.8773 14.6016 37.1462 14.3392 37.1462 14.0156C37.1462 13.692 36.8773 13.4297 36.5457 13.4297Z" fill="black"/>
<path d="M36.5457 17.5918H19.374C19.0423 17.5918 18.7734 17.8541 18.7734 18.1777C18.7734 18.5013 19.0423 18.7637 19.374 18.7637H36.5457C36.8773 18.7637 37.1462 18.5013 37.1462 18.1777C37.1462 17.8541 36.8773 17.5918 36.5457 17.5918Z" fill="black"/>
<path d="M36.5457 21.7539H19.374C19.0423 21.7539 18.7734 22.0162 18.7734 22.3398C18.7734 22.6634 19.0423 22.9258 19.374 22.9258H36.5457C36.8773 22.9258 37.1462 22.6634 37.1462 22.3398C37.1462 22.0162 36.8773 21.7539 36.5457 21.7539Z" fill="black"/>
<path d="M36.5457 25.916H19.374C19.0423 25.916 18.7734 26.1784 18.7734 26.502C18.7734 26.8255 19.0423 27.0879 19.374 27.0879H36.5457C36.8773 27.0879 37.1462 26.8255 37.1462 26.502C37.1462 26.1784 36.8773 25.916 36.5457 25.916Z" fill="black"/>
</svg>
