<svg width="35" height="42" viewBox="0 0 35 42" fill="none" xmlns="http://www.w3.org/2000/svg">
<path d="M32.9899 27.808H32.0108V19.977C32.0108 19.8454 31.9686 19.7175 31.8907 19.6128L29.0742 15.8276C29.3481 15.4586 29.5111 14.9987 29.5111 14.5004C29.5111 13.2893 28.5497 12.3039 27.3682 12.3039C26.1866 12.3039 25.2253 13.2893 25.2253 14.5004C25.2253 15.7116 26.1866 16.6968 27.3682 16.6968C27.6393 16.6968 27.8986 16.6444 28.1376 16.5498L30.8387 20.18V27.808H28.0379V26.0668C28.0379 25.7351 27.7756 25.4662 27.452 25.4662C27.1284 25.4662 26.8661 25.7351 26.8661 26.0668V27.808H24.3241V23.1058C24.3241 22.7742 24.0618 22.5052 23.7382 22.5052C23.4146 22.5052 23.1522 22.7742 23.1522 23.1058V27.808H19.605L18.5931 21.6804L18.8776 21.2415C19.1295 21.4249 19.3791 21.555 19.7454 21.4611C20.0115 21.3929 20.2344 21.2094 20.3569 20.9578L21.7864 18.0213L25.0506 19.3171C25.1396 19.3565 26.8661 20.1509 26.8661 22.2295V23.2639C26.8661 23.5956 27.1285 23.8645 27.4521 23.8645C27.7757 23.8645 28.038 23.5956 28.038 23.2639V22.2295C28.038 19.3108 25.5966 18.2484 25.4927 18.2046C25.489 18.203 25.4853 18.2015 25.4815 18.2001L19.956 16.0067V14.8012C20.822 14.0926 21.4292 13.0651 21.6044 11.8931C22.036 11.8429 22.4364 11.6686 22.7675 11.3767C23.2324 10.9668 23.4991 10.3706 23.4991 9.74077C23.4991 9.23347 23.326 8.74804 23.0158 8.3643V6.62997C23.0158 3.28222 20.3586 0.558594 17.0925 0.558594C13.8265 0.558594 11.1692 3.28222 11.1692 6.62997V8.40947C10.8558 8.78864 10.6862 9.25093 10.6862 9.74045C10.6862 10.3703 10.9528 10.9668 11.4178 11.3766C11.7498 11.6692 12.1514 11.8438 12.5845 11.8934C12.7618 13.0362 13.3658 14.1341 14.3235 14.8753V16.0066L8.804 18.1999C8.80033 18.2014 8.79666 18.2029 8.79298 18.2044C8.689 18.2482 6.24767 19.3106 6.24767 22.2292V27.8078H3.44688V20.1798L6.14798 16.5496C6.38696 16.6442 6.64626 16.6966 6.91743 16.6966C8.09908 16.6966 9.06033 15.7112 9.06033 14.5001C9.06033 13.289 8.099 12.3037 6.91743 12.3037C5.73587 12.3037 4.77454 13.289 4.77454 14.5001C4.77454 14.9985 4.93759 15.4584 5.21142 15.8274L2.39493 19.6126C2.31704 19.7172 2.27485 19.8452 2.27485 19.9768V27.8077H1.29586C0.581251 27.8077 0 28.4035 0 29.136V32.2498C0 32.9817 0.580392 33.577 1.29422 33.578V40.3077C1.29422 40.9974 1.84157 41.5584 2.51446 41.5584H15.7757C16.0992 41.5584 16.3616 41.2895 16.3616 40.9578C16.3616 40.6262 16.0992 40.3573 15.7757 40.3573H2.51438C2.48774 40.3573 2.4661 40.3351 2.4661 40.3078V33.5782H31.8197V40.3078C31.8197 40.3351 31.798 40.3573 31.7714 40.3573H18.5101C18.1865 40.3573 17.9242 40.6262 17.9242 40.9578C17.9242 41.2895 18.1865 41.5584 18.5101 41.5584H31.7713C32.4442 41.5584 32.9915 40.9974 32.9915 40.3077V33.578C33.7054 33.577 34.2858 32.9816 34.2858 32.2498V29.1361C34.2858 28.4037 33.7045 27.808 32.9899 27.808ZM27.3683 15.4954C26.833 15.4954 26.3974 15.049 26.3974 14.5002C26.3974 13.9514 26.8329 13.505 27.3683 13.505C27.9037 13.505 28.3393 13.9514 28.3393 14.5002C28.3393 15.0556 27.8923 15.4954 27.3683 15.4954ZM6.91743 13.5051C7.45283 13.5051 7.88837 13.9515 7.88837 14.5003C7.88837 15.0491 7.45283 15.4955 6.91743 15.4955C6.39345 15.4955 5.94649 15.0556 5.94649 14.5003C5.94649 13.9515 6.38212 13.5051 6.91743 13.5051ZM20.6887 17.5856L19.4304 20.1704C19.4264 20.1675 19.0503 19.8936 17.9882 19.1204C18.9968 17.8443 19.0459 17.7822 19.5565 17.1362L20.6887 17.5856ZM17.1414 19.9774L17.9217 20.5454L17.6625 20.9454H16.6203L16.361 20.5455L17.1414 19.9774ZM15.4956 16.2012V15.5235C16.0323 15.7208 16.6121 15.8099 17.1494 15.8099C17.7203 15.8099 18.2931 15.692 18.784 15.4954V16.2051L17.1414 18.2835L15.4956 16.2012ZM16.8012 22.1467H17.4815L18.4164 27.8078H15.8664L16.8012 22.1467ZM22.3271 9.74045C22.3271 10.0199 22.2091 10.2842 22.0033 10.4656C21.9019 10.555 21.7846 10.6205 21.6565 10.6606V8.82131C22.0596 8.94816 22.3271 9.31852 22.3271 9.74045ZM12.5288 10.6607C12.4007 10.6206 12.2834 10.5552 12.1821 10.4659C11.9762 10.2845 11.8582 10.0202 11.8582 9.74045C11.8582 9.42983 12.0282 9.21105 12.1478 9.09542C12.1497 9.09366 12.1517 9.09214 12.1537 9.09029C12.2622 8.98715 12.3917 8.90852 12.5288 8.85582V10.6607ZM12.8332 7.20805C12.7192 7.3164 12.6277 7.46655 12.581 7.60548C12.5004 7.61789 12.4205 7.63487 12.3415 7.65609V6.62997H12.3413C12.3413 3.94454 14.4727 1.75985 17.0926 1.75985C19.7125 1.75985 21.8439 3.94462 21.8439 6.62997V7.62814C21.7821 7.61381 21.7193 7.6026 21.6558 7.59371C21.6498 7.3807 21.6003 7.25194 21.4055 7.00938C21.2246 6.78452 20.8987 6.44042 20.1503 5.61602C19.8386 5.27248 19.3273 5.20201 18.9359 5.46419C17.3367 6.535 15.3739 7.08545 13.5492 6.95148C13.2875 6.93114 13.0264 7.02459 12.8332 7.20805ZM13.7008 11.1903V8.19462V8.16363C14.8033 8.21328 15.932 8.04896 17.0041 7.70734C17.8482 7.43844 18.6659 7.05695 19.4186 6.57343C19.633 6.80918 19.8099 7.00241 19.9558 7.16193C19.9657 7.17266 19.9749 7.18275 19.9845 7.19332C20.0368 7.2505 20.0869 7.30527 20.1335 7.35636C20.2935 7.53157 20.4171 7.66834 20.4844 7.74882V11.1903C20.4844 13.0776 18.9824 14.6087 17.1492 14.6087C15.1253 14.6087 13.7008 13.0124 13.7008 11.1903ZM14.7239 17.137L16.2926 19.1219C15.6141 19.6158 14.9255 20.1172 14.8523 20.1706L13.594 17.5856L14.7239 17.137ZM7.41954 22.2293C7.41962 20.1537 9.1265 19.365 9.23541 19.3169L12.4961 18.0211L13.9256 20.9577V20.9577C14.0863 21.2876 14.4131 21.4897 14.765 21.4897C15.0876 21.4897 15.2778 21.3338 15.4049 21.2413L15.6894 21.6802L14.6775 27.8078H11.1335V23.1056C11.1335 22.7739 10.8712 22.505 10.5476 22.505C10.224 22.505 9.96166 22.7739 9.96166 23.1056V27.8078H7.41962V22.2293H7.41954ZM33.1138 32.25C33.1138 32.32 33.0583 32.377 32.9899 32.377C32.1516 32.377 2.00446 32.377 1.29578 32.377C1.22742 32.377 1.17188 32.32 1.17188 32.25V29.1361C1.17188 29.0661 1.22742 29.0091 1.29578 29.0091C2.33297 29.0091 32.2069 29.0091 32.9899 29.0091C33.0583 29.0091 33.1138 29.0661 33.1138 29.1361V32.25Z" fill="black"/>
</svg>
