<svg width="96" height="93" viewBox="0 0 96 93" fill="none" xmlns="http://www.w3.org/2000/svg">
<g clip-path="url(#clip0_569_1804)">
<g clip-path="url(#clip1_569_1804)">
<g clip-path="url(#clip2_569_1804)">
<g clip-path="url(#clip3_569_1804)">
<path d="M48.3398 91.4414C72.6404 91.4414 92.3398 71.7419 92.3398 47.4414C92.3398 23.1409 72.6404 3.44141 48.3398 3.44141C24.0393 3.44141 4.33984 23.1409 4.33984 47.4414C4.33984 71.7419 24.0393 91.4414 48.3398 91.4414Z" fill="white" stroke="#9DC9D9" stroke-width="2"/>
<g filter="url(#filter0_d_569_1804)">
<path d="M56.8373 17.7249L21.6352 24.7457C19.6275 25.1461 18.3459 26.9978 18.7727 28.8816L28.9004 73.589C29.3272 75.4728 31.3006 76.6753 33.3083 76.2749L68.5104 69.2541C70.5181 68.8537 71.7997 67.002 71.3729 65.1182L61.2452 20.4108C60.8185 18.527 58.845 17.3245 56.8373 17.7249Z" fill="black"/>
</g>
<path d="M56.8373 17.7249L21.6352 24.7457C19.6275 25.1461 18.3459 26.9978 18.7727 28.8816L28.9004 73.589C29.3272 75.4728 31.3006 76.6753 33.3083 76.2749L68.5104 69.2541C70.5181 68.8537 71.7997 67.002 71.3729 65.1182L61.2452 20.4108C60.8185 18.527 58.845 17.3245 56.8373 17.7249Z" fill="white" stroke="#859DB6" stroke-width="0.8"/>
<g filter="url(#filter1_d_569_1804)">
<path d="M54.1733 23.9036L26.2964 29.4634C25.5001 29.6222 24.9917 30.3567 25.161 31.1039L28.0424 43.8236C28.2117 44.5709 28.9945 45.0478 29.7908 44.889L57.6678 39.3292C58.4641 39.1704 58.9725 38.4359 58.8032 37.6887L55.9217 24.9689C55.7525 24.2217 54.9697 23.7447 54.1733 23.9036Z" fill="black"/>
</g>
<path d="M54.1733 23.9036L26.2964 29.4634C25.5001 29.6222 24.9917 30.3567 25.161 31.1039L28.0424 43.8236C28.2117 44.5709 28.9945 45.0478 29.7908 44.889L57.6678 39.3292C58.4641 39.1704 58.9725 38.4359 58.8032 37.6887L55.9217 24.9689C55.7525 24.2217 54.9697 23.7447 54.1733 23.9036Z" fill="#A0D4F2"/>
<g filter="url(#filter2_d_569_1804)">
<path d="M57.7786 43.2163L30.3823 48.6803C29.7186 48.8126 29.295 49.4247 29.4361 50.0474C29.5771 50.6701 30.2294 51.0675 30.8931 50.9352L58.2894 45.4712C58.953 45.3389 59.3766 44.7268 59.2356 44.1041C59.0945 43.4814 58.4422 43.084 57.7786 43.2163Z" fill="black"/>
</g>
<path d="M57.7786 43.2163L30.3823 48.6803C29.7186 48.8126 29.295 49.4247 29.4361 50.0474C29.5771 50.6701 30.2294 51.0675 30.8931 50.9352L58.2894 45.4712C58.953 45.3389 59.3766 44.7268 59.2356 44.1041C59.0945 43.4814 58.4422 43.084 57.7786 43.2163Z" fill="#0F70A8"/>
<g filter="url(#filter3_d_569_1804)">
<path d="M59.5149 50.8823L32.1186 56.3463C31.455 56.4786 31.0313 57.0907 31.1724 57.7134C31.3135 58.3361 31.9658 58.7336 32.6294 58.6012L60.0257 53.1372C60.6893 53.0049 61.1129 52.3928 60.9719 51.7701C60.8308 51.1475 60.1785 50.75 59.5149 50.8823Z" fill="black"/>
</g>
<path d="M59.5149 50.8823L32.1186 56.3463C31.455 56.4786 31.0313 57.0907 31.1724 57.7134C31.3135 58.3361 31.9658 58.7336 32.6294 58.6012L60.0257 53.1372C60.6893 53.0049 61.1129 52.3928 60.9719 51.7701C60.8308 51.1475 60.1785 50.75 59.5149 50.8823Z" fill="#0F70A8"/>
<g filter="url(#filter4_d_569_1804)">
<path d="M47.7934 61.2334L33.8549 64.0133C33.1913 64.1456 32.7677 64.7577 32.9087 65.3804C33.0498 66.0031 33.7021 66.4005 34.3657 66.2682L48.3042 63.4883C48.9678 63.3559 49.3914 62.7439 49.2504 62.1212C49.1093 61.4985 48.457 61.101 47.7934 61.2334Z" fill="black"/>
</g>
<path d="M47.7934 61.2334L33.8549 64.0133C33.1913 64.1456 32.7677 64.7577 32.9087 65.3804C33.0498 66.0031 33.7021 66.4005 34.3657 66.2682L48.3042 63.4883C48.9678 63.3559 49.3914 62.7439 49.2504 62.1212C49.1093 61.4985 48.457 61.101 47.7934 61.2334Z" fill="#0F70A8"/>
<g filter="url(#filter5_d_569_1804)">
<path d="M75.0264 19.5654H37.5512C35.9092 19.5654 34.5781 20.8144 34.5781 22.3551V69.4562C34.5781 70.9969 35.9092 72.2458 37.5512 72.2458H75.0264C76.6684 72.2458 77.9995 70.9969 77.9995 69.4562V22.3551C77.9995 20.8144 76.6684 19.5654 75.0264 19.5654Z" fill="black"/>
</g>
<path d="M75.0264 19.5654H37.5512C35.9092 19.5654 34.5781 20.8144 34.5781 22.3551V69.4562C34.5781 70.9969 35.9092 72.2458 37.5512 72.2458H75.0264C76.6684 72.2458 77.9995 70.9969 77.9995 69.4562V22.3551C77.9995 20.8144 76.6684 19.5654 75.0264 19.5654Z" fill="white" stroke="#859DB6" stroke-width="0.9"/>
<g filter="url(#filter6_d_569_1804)">
<path d="M69.7124 36.1641H41.704C41.0256 36.1641 40.4756 36.6801 40.4756 37.3167C40.4756 37.9533 41.0256 38.4693 41.704 38.4693H69.7124C70.3908 38.4693 70.9408 37.9533 70.9408 37.3167C70.9408 36.6801 70.3908 36.1641 69.7124 36.1641Z" fill="black"/>
</g>
<path d="M69.7124 36.1641H41.704C41.0256 36.1641 40.4756 36.6801 40.4756 37.3167C40.4756 37.9533 41.0256 38.4693 41.704 38.4693H69.7124C70.3908 38.4693 70.9408 37.9533 70.9408 37.3167C70.9408 36.6801 70.3908 36.1641 69.7124 36.1641Z" fill="#0F70A8"/>
<g filter="url(#filter7_d_569_1804)">
<path d="M69.7124 44.002H41.704C41.0256 44.002 40.4756 44.518 40.4756 45.1546C40.4756 45.7912 41.0256 46.3072 41.704 46.3072H69.7124C70.3908 46.3072 70.9408 45.7912 70.9408 45.1546C70.9408 44.518 70.3908 44.002 69.7124 44.002Z" fill="black"/>
</g>
<path d="M69.7124 44.002H41.704C41.0256 44.002 40.4756 44.518 40.4756 45.1546C40.4756 45.7912 41.0256 46.3072 41.704 46.3072H69.7124C70.3908 46.3072 70.9408 45.7912 70.9408 45.1546C70.9408 44.518 70.3908 44.002 69.7124 44.002Z" fill="#0F70A8"/>
<g filter="url(#filter8_d_569_1804)">
<path d="M69.7124 51.8408H41.704C41.0256 51.8408 40.4756 52.3569 40.4756 52.9935C40.4756 53.63 41.0256 54.1461 41.704 54.1461H69.7124C70.3908 54.1461 70.9408 53.63 70.9408 52.9935C70.9408 52.3569 70.3908 51.8408 69.7124 51.8408Z" fill="black"/>
</g>
<path d="M69.7124 51.8408H41.704C41.0256 51.8408 40.4756 52.3569 40.4756 52.9935C40.4756 53.63 41.0256 54.1461 41.704 54.1461H69.7124C70.3908 54.1461 70.9408 53.63 70.9408 52.9935C70.9408 52.3569 70.3908 51.8408 69.7124 51.8408Z" fill="#0F70A8"/>
<g filter="url(#filter9_d_569_1804)">
<path d="M55.9539 59.6787H41.704C41.0256 59.6787 40.4756 60.1948 40.4756 60.8314C40.4756 61.4679 41.0256 61.984 41.704 61.984H55.9539C56.6323 61.984 57.1823 61.4679 57.1823 60.8314C57.1823 60.1948 56.6323 59.6787 55.9539 59.6787Z" fill="black"/>
</g>
<path d="M55.9539 59.6787H41.704C41.0256 59.6787 40.4756 60.1948 40.4756 60.8314C40.4756 61.4679 41.0256 61.984 41.704 61.984H55.9539C56.6323 61.984 57.1823 61.4679 57.1823 60.8314C57.1823 60.1948 56.6323 59.6787 55.9539 59.6787Z" fill="#0F70A8"/>
<g filter="url(#filter10_d_569_1804)">
<path d="M55.9539 28.7871H41.704C41.0256 28.7871 40.4756 29.3032 40.4756 29.9398C40.4756 30.5763 41.0256 31.0924 41.704 31.0924H55.9539C56.6323 31.0924 57.1823 30.5763 57.1823 29.9398C57.1823 29.3032 56.6323 28.7871 55.9539 28.7871Z" fill="black"/>
</g>
<path d="M55.9539 28.7871H41.704C41.0256 28.7871 40.4756 29.3032 40.4756 29.9398C40.4756 30.5763 41.0256 31.0924 41.704 31.0924H55.9539C56.6323 31.0924 57.1823 30.5763 57.1823 29.9398C57.1823 29.3032 56.6323 28.7871 55.9539 28.7871Z" fill="#0F70A8"/>
</g>
</g>
</g>
</g>
<defs>
<filter id="filter0_d_569_1804" x="11.6904" y="14.6484" width="66.7646" height="72.7031" filterUnits="userSpaceOnUse" color-interpolation-filters="sRGB">
<feFlood flood-opacity="0" result="BackgroundImageFix"/>
<feColorMatrix in="SourceAlpha" type="matrix" values="0 0 0 0 0 0 0 0 0 0 0 0 0 0 0 0 0 0 127 0" result="hardAlpha"/>
<feOffset dy="4"/>
<feGaussianBlur stdDeviation="3.5"/>
<feComposite in2="hardAlpha" operator="out"/>
<feColorMatrix type="matrix" values="0 0 0 0 0 0 0 0 0 0 0 0 0 0 0 0 0 0 0.106544 0"/>
<feBlend mode="normal" in2="BackgroundImageFix" result="effect1_dropShadow_569_1804"/>
<feBlend mode="normal" in="SourceGraphic" in2="effect1_dropShadow_569_1804" result="shape"/>
</filter>
<filter id="filter1_d_569_1804" x="21.1289" y="22.873" width="41.707" height="29.0469" filterUnits="userSpaceOnUse" color-interpolation-filters="sRGB">
<feFlood flood-opacity="0" result="BackgroundImageFix"/>
<feColorMatrix in="SourceAlpha" type="matrix" values="0 0 0 0 0 0 0 0 0 0 0 0 0 0 0 0 0 0 127 0" result="hardAlpha"/>
<feOffset dy="3"/>
<feGaussianBlur stdDeviation="2"/>
<feColorMatrix type="matrix" values="0 0 0 0 0 0 0 0 0 0 0 0 0 0 0 0 0 0 0.106544 0"/>
<feBlend mode="normal" in2="BackgroundImageFix" result="effect1_dropShadow_569_1804"/>
<feBlend mode="normal" in="SourceGraphic" in2="effect1_dropShadow_569_1804" result="shape"/>
</filter>
<filter id="filter2_d_569_1804" x="25.4092" y="42.1904" width="37.8535" height="15.7705" filterUnits="userSpaceOnUse" color-interpolation-filters="sRGB">
<feFlood flood-opacity="0" result="BackgroundImageFix"/>
<feColorMatrix in="SourceAlpha" type="matrix" values="0 0 0 0 0 0 0 0 0 0 0 0 0 0 0 0 0 0 127 0" result="hardAlpha"/>
<feOffset dy="3"/>
<feGaussianBlur stdDeviation="2"/>
<feColorMatrix type="matrix" values="0 0 0 0 0 0 0 0 0 0 0 0 0 0 0 0 0 0 0.106544 0"/>
<feBlend mode="normal" in2="BackgroundImageFix" result="effect1_dropShadow_569_1804"/>
<feBlend mode="normal" in="SourceGraphic" in2="effect1_dropShadow_569_1804" result="shape"/>
</filter>
<filter id="filter3_d_569_1804" x="27.1455" y="49.8564" width="37.8535" height="15.7705" filterUnits="userSpaceOnUse" color-interpolation-filters="sRGB">
<feFlood flood-opacity="0" result="BackgroundImageFix"/>
<feColorMatrix in="SourceAlpha" type="matrix" values="0 0 0 0 0 0 0 0 0 0 0 0 0 0 0 0 0 0 127 0" result="hardAlpha"/>
<feOffset dy="3"/>
<feGaussianBlur stdDeviation="2"/>
<feColorMatrix type="matrix" values="0 0 0 0 0 0 0 0 0 0 0 0 0 0 0 0 0 0 0.106544 0"/>
<feBlend mode="normal" in2="BackgroundImageFix" result="effect1_dropShadow_569_1804"/>
<feBlend mode="normal" in="SourceGraphic" in2="effect1_dropShadow_569_1804" result="shape"/>
</filter>
<filter id="filter4_d_569_1804" x="28.8818" y="60.208" width="24.3955" height="13.0859" filterUnits="userSpaceOnUse" color-interpolation-filters="sRGB">
<feFlood flood-opacity="0" result="BackgroundImageFix"/>
<feColorMatrix in="SourceAlpha" type="matrix" values="0 0 0 0 0 0 0 0 0 0 0 0 0 0 0 0 0 0 127 0" result="hardAlpha"/>
<feOffset dy="3"/>
<feGaussianBlur stdDeviation="2"/>
<feColorMatrix type="matrix" values="0 0 0 0 0 0 0 0 0 0 0 0 0 0 0 0 0 0 0.106544 0"/>
<feBlend mode="normal" in2="BackgroundImageFix" result="effect1_dropShadow_569_1804"/>
<feBlend mode="normal" in="SourceGraphic" in2="effect1_dropShadow_569_1804" result="shape"/>
</filter>
<filter id="filter5_d_569_1804" x="27.5781" y="16.5654" width="57.4209" height="66.6807" filterUnits="userSpaceOnUse" color-interpolation-filters="sRGB">
<feFlood flood-opacity="0" result="BackgroundImageFix"/>
<feColorMatrix in="SourceAlpha" type="matrix" values="0 0 0 0 0 0 0 0 0 0 0 0 0 0 0 0 0 0 127 0" result="hardAlpha"/>
<feOffset dy="4"/>
<feGaussianBlur stdDeviation="3.5"/>
<feComposite in2="hardAlpha" operator="out"/>
<feColorMatrix type="matrix" values="0 0 0 0 0 0 0 0 0 0 0 0 0 0 0 0 0 0 0.247186 0"/>
<feBlend mode="normal" in2="BackgroundImageFix" result="effect1_dropShadow_569_1804"/>
<feBlend mode="normal" in="SourceGraphic" in2="effect1_dropShadow_569_1804" result="shape"/>
</filter>
<filter id="filter6_d_569_1804" x="36.4756" y="35.1641" width="38.4648" height="10.3057" filterUnits="userSpaceOnUse" color-interpolation-filters="sRGB">
<feFlood flood-opacity="0" result="BackgroundImageFix"/>
<feColorMatrix in="SourceAlpha" type="matrix" values="0 0 0 0 0 0 0 0 0 0 0 0 0 0 0 0 0 0 127 0" result="hardAlpha"/>
<feOffset dy="3"/>
<feGaussianBlur stdDeviation="2"/>
<feColorMatrix type="matrix" values="0 0 0 0 0 0 0 0 0 0 0 0 0 0 0 0 0 0 0.106544 0"/>
<feBlend mode="normal" in2="BackgroundImageFix" result="effect1_dropShadow_569_1804"/>
<feBlend mode="normal" in="SourceGraphic" in2="effect1_dropShadow_569_1804" result="shape"/>
</filter>
<filter id="filter7_d_569_1804" x="36.4756" y="43.002" width="38.4648" height="10.3057" filterUnits="userSpaceOnUse" color-interpolation-filters="sRGB">
<feFlood flood-opacity="0" result="BackgroundImageFix"/>
<feColorMatrix in="SourceAlpha" type="matrix" values="0 0 0 0 0 0 0 0 0 0 0 0 0 0 0 0 0 0 127 0" result="hardAlpha"/>
<feOffset dy="3"/>
<feGaussianBlur stdDeviation="2"/>
<feColorMatrix type="matrix" values="0 0 0 0 0 0 0 0 0 0 0 0 0 0 0 0 0 0 0.106544 0"/>
<feBlend mode="normal" in2="BackgroundImageFix" result="effect1_dropShadow_569_1804"/>
<feBlend mode="normal" in="SourceGraphic" in2="effect1_dropShadow_569_1804" result="shape"/>
</filter>
<filter id="filter8_d_569_1804" x="36.4756" y="50.8408" width="38.4648" height="10.3057" filterUnits="userSpaceOnUse" color-interpolation-filters="sRGB">
<feFlood flood-opacity="0" result="BackgroundImageFix"/>
<feColorMatrix in="SourceAlpha" type="matrix" values="0 0 0 0 0 0 0 0 0 0 0 0 0 0 0 0 0 0 127 0" result="hardAlpha"/>
<feOffset dy="3"/>
<feGaussianBlur stdDeviation="2"/>
<feColorMatrix type="matrix" values="0 0 0 0 0 0 0 0 0 0 0 0 0 0 0 0 0 0 0.106544 0"/>
<feBlend mode="normal" in2="BackgroundImageFix" result="effect1_dropShadow_569_1804"/>
<feBlend mode="normal" in="SourceGraphic" in2="effect1_dropShadow_569_1804" result="shape"/>
</filter>
<filter id="filter9_d_569_1804" x="36.4756" y="58.6787" width="24.707" height="10.3057" filterUnits="userSpaceOnUse" color-interpolation-filters="sRGB">
<feFlood flood-opacity="0" result="BackgroundImageFix"/>
<feColorMatrix in="SourceAlpha" type="matrix" values="0 0 0 0 0 0 0 0 0 0 0 0 0 0 0 0 0 0 127 0" result="hardAlpha"/>
<feOffset dy="3"/>
<feGaussianBlur stdDeviation="2"/>
<feColorMatrix type="matrix" values="0 0 0 0 0 0 0 0 0 0 0 0 0 0 0 0 0 0 0.106544 0"/>
<feBlend mode="normal" in2="BackgroundImageFix" result="effect1_dropShadow_569_1804"/>
<feBlend mode="normal" in="SourceGraphic" in2="effect1_dropShadow_569_1804" result="shape"/>
</filter>
<filter id="filter10_d_569_1804" x="36.4756" y="27.7871" width="24.707" height="10.3057" filterUnits="userSpaceOnUse" color-interpolation-filters="sRGB">
<feFlood flood-opacity="0" result="BackgroundImageFix"/>
<feColorMatrix in="SourceAlpha" type="matrix" values="0 0 0 0 0 0 0 0 0 0 0 0 0 0 0 0 0 0 127 0" result="hardAlpha"/>
<feOffset dy="3"/>
<feGaussianBlur stdDeviation="2"/>
<feColorMatrix type="matrix" values="0 0 0 0 0 0 0 0 0 0 0 0 0 0 0 0 0 0 0.106544 0"/>
<feBlend mode="normal" in2="BackgroundImageFix" result="effect1_dropShadow_569_1804"/>
<feBlend mode="normal" in="SourceGraphic" in2="effect1_dropShadow_569_1804" result="shape"/>
</filter>
<clipPath id="clip0_569_1804">
<rect width="95" height="92" fill="white" transform="translate(0.328125 0.558594)"/>
</clipPath>
<clipPath id="clip1_569_1804">
<rect width="95" height="92" fill="white" transform="translate(0 1)"/>
</clipPath>
<clipPath id="clip2_569_1804">
<rect width="95" height="92" fill="white" transform="translate(0.339844 1.44141)"/>
</clipPath>
<clipPath id="clip3_569_1804">
<rect width="95" height="92" fill="white" transform="translate(0.339844 1.44141)"/>
</clipPath>
</defs>
</svg>
