<svg width="40" height="42" viewBox="0 0 40 42" fill="none" xmlns="http://www.w3.org/2000/svg">
<path d="M35.625 5.68359H32.5V4.40234C32.5 3.72273 32.2366 3.07094 31.7678 2.59038C31.2989 2.10982 30.663 1.83984 30 1.83984C29.337 1.83984 28.7011 2.10982 28.2322 2.59038C27.7634 3.07094 27.5 3.72273 27.5 4.40234V5.68359H22.5V4.40234C22.5 3.72273 22.2366 3.07094 21.7678 2.59038C21.2989 2.10982 20.663 1.83984 20 1.83984C19.337 1.83984 18.7011 2.10982 18.2322 2.59038C17.7634 3.07094 17.5 3.72273 17.5 4.40234V5.68359H12.5V4.40234C12.5 3.72273 12.2366 3.07094 11.7678 2.59038C11.2989 2.10982 10.663 1.83984 10 1.83984C9.33696 1.83984 8.70107 2.10982 8.23223 2.59038C7.76339 3.07094 7.5 3.72273 7.5 4.40234V5.68359H4.375C3.5462 5.68359 2.75134 6.02106 2.16529 6.62177C1.57924 7.22247 1.25 8.0372 1.25 8.88672V34.5117C1.25 35.3612 1.57924 36.176 2.16529 36.7767C2.75134 37.3774 3.5462 37.7148 4.375 37.7148H21.875C22.0408 37.7148 22.1997 37.6474 22.3169 37.5272C22.4342 37.4071 22.5 37.2441 22.5 37.0742C22.5 36.9043 22.4342 36.7414 22.3169 36.6212C22.1997 36.5011 22.0408 36.4336 21.875 36.4336H4.375C3.87818 36.4321 3.40212 36.2291 3.05081 35.869C2.6995 35.5089 2.50148 35.021 2.5 34.5117V14.6523H37.5V25.543C37.5 25.7129 37.5658 25.8758 37.6831 25.996C37.8003 26.1161 37.9592 26.1836 38.125 26.1836C38.2908 26.1836 38.4497 26.1161 38.5669 25.996C38.6842 25.8758 38.75 25.7129 38.75 25.543V8.88672C38.75 8.0372 38.4208 7.22247 37.8347 6.62177C37.2487 6.02106 36.4538 5.68359 35.625 5.68359ZM28.75 4.40234C28.75 4.06254 28.8817 3.73664 29.1161 3.49636C29.3505 3.25608 29.6685 3.12109 30 3.12109C30.3315 3.12109 30.6495 3.25608 30.8839 3.49636C31.1183 3.73664 31.25 4.06254 31.25 4.40234V8.24609C31.25 8.5859 31.1183 8.91179 30.8839 9.15207C30.6495 9.39235 30.3315 9.52734 30 9.52734C29.6685 9.52734 29.3505 9.39235 29.1161 9.15207C28.8817 8.91179 28.75 8.5859 28.75 8.24609V4.40234ZM18.75 4.40234C18.75 4.06254 18.8817 3.73664 19.1161 3.49636C19.3505 3.25608 19.6685 3.12109 20 3.12109C20.3315 3.12109 20.6495 3.25608 20.8839 3.49636C21.1183 3.73664 21.25 4.06254 21.25 4.40234V8.24609C21.25 8.5859 21.1183 8.91179 20.8839 9.15207C20.6495 9.39235 20.3315 9.52734 20 9.52734C19.6685 9.52734 19.3505 9.39235 19.1161 9.15207C18.8817 8.91179 18.75 8.5859 18.75 8.24609V4.40234ZM8.75 4.40234C8.75 4.06254 8.8817 3.73664 9.11612 3.49636C9.35054 3.25608 9.66848 3.12109 10 3.12109C10.3315 3.12109 10.6495 3.25608 10.8839 3.49636C11.1183 3.73664 11.25 4.06254 11.25 4.40234V8.24609C11.25 8.5859 11.1183 8.91179 10.8839 9.15207C10.6495 9.39235 10.3315 9.52734 10 9.52734C9.66848 9.52734 9.35054 9.39235 9.11612 9.15207C8.8817 8.91179 8.75 8.5859 8.75 8.24609V4.40234ZM37.5 13.3711H2.5V8.88672C2.50148 8.37747 2.6995 7.88952 3.05081 7.52943C3.40212 7.16934 3.87818 6.96636 4.375 6.96484H7.5V8.24609C7.5 8.92571 7.76339 9.57749 8.23223 10.0581C8.70107 10.5386 9.33696 10.8086 10 10.8086C10.663 10.8086 11.2989 10.5386 11.7678 10.0581C12.2366 9.57749 12.5 8.92571 12.5 8.24609V6.96484H17.5V8.24609C17.5 8.92571 17.7634 9.57749 18.2322 10.0581C18.7011 10.5386 19.337 10.8086 20 10.8086C20.663 10.8086 21.2989 10.5386 21.7678 10.0581C22.2366 9.57749 22.5 8.92571 22.5 8.24609V6.96484H27.5V8.24609C27.5 8.92571 27.7634 9.57749 28.2322 10.0581C28.7011 10.5386 29.337 10.8086 30 10.8086C30.663 10.8086 31.2989 10.5386 31.7678 10.0581C32.2366 9.57749 32.5 8.92571 32.5 8.24609V6.96484H35.625C36.1218 6.96636 36.5979 7.16934 36.9492 7.52943C37.3005 7.88952 37.4985 8.37747 37.5 8.88672V13.3711Z" fill="black"/>
<path d="M18.75 19.1367C18.75 18.7969 18.6183 18.471 18.3839 18.2307C18.1495 17.9905 17.8315 17.8555 17.5 17.8555H15C14.6685 17.8555 14.3505 17.9905 14.1161 18.2307C13.8817 18.471 13.75 18.7969 13.75 19.1367V21.0586C13.75 21.3984 13.8817 21.7243 14.1161 21.9646C14.3505 22.2049 14.6685 22.3398 15 22.3398H17.5C17.8315 22.3398 18.1495 22.2049 18.3839 21.9646C18.6183 21.7243 18.75 21.3984 18.75 21.0586V19.1367ZM15 21.0586V19.1367H17.5V21.0586H15Z" fill="black"/>
<path d="M11.25 19.1367C11.25 18.7969 11.1183 18.471 10.8839 18.2307C10.6495 17.9905 10.3315 17.8555 10 17.8555H7.5C7.16848 17.8555 6.85054 17.9905 6.61612 18.2307C6.3817 18.471 6.25 18.7969 6.25 19.1367V21.0586C6.25 21.3984 6.3817 21.7243 6.61612 21.9646C6.85054 22.2049 7.16848 22.3398 7.5 22.3398H10C10.3315 22.3398 10.6495 22.2049 10.8839 21.9646C11.1183 21.7243 11.25 21.3984 11.25 21.0586V19.1367ZM7.5 21.0586V19.1367H10V21.0586H7.5Z" fill="black"/>
<path d="M32.5 22.3398C32.8315 22.3398 33.1495 22.2049 33.3839 21.9646C33.6183 21.7243 33.75 21.3984 33.75 21.0586V19.1367C33.75 18.7969 33.6183 18.471 33.3839 18.2307C33.1495 17.9905 32.8315 17.8555 32.5 17.8555H30C29.6685 17.8555 29.3505 17.9905 29.1161 18.2307C28.8817 18.471 28.75 18.7969 28.75 19.1367V21.0586C28.75 21.3984 28.8817 21.7243 29.1161 21.9646C29.3505 22.2049 29.6685 22.3398 30 22.3398H32.5ZM30 19.1367H32.5V21.0586H30V19.1367Z" fill="black"/>
<path d="M18.75 24.9023C18.75 24.5625 18.6183 24.2366 18.3839 23.9964C18.1495 23.7561 17.8315 23.6211 17.5 23.6211H15C14.6685 23.6211 14.3505 23.7561 14.1161 23.9964C13.8817 24.2366 13.75 24.5625 13.75 24.9023V26.8242C13.75 27.164 13.8817 27.4899 14.1161 27.7302C14.3505 27.9705 14.6685 28.1055 15 28.1055H17.5C17.8315 28.1055 18.1495 27.9705 18.3839 27.7302C18.6183 27.4899 18.75 27.164 18.75 26.8242V24.9023ZM15 26.8242V24.9023H17.5V26.8242H15Z" fill="black"/>
<path d="M11.25 24.9023C11.25 24.5625 11.1183 24.2366 10.8839 23.9964C10.6495 23.7561 10.3315 23.6211 10 23.6211H7.5C7.16848 23.6211 6.85054 23.7561 6.61612 23.9964C6.3817 24.2366 6.25 24.5625 6.25 24.9023V26.8242C6.25 27.164 6.3817 27.4899 6.61612 27.7302C6.85054 27.9705 7.16848 28.1055 7.5 28.1055H10C10.3315 28.1055 10.6495 27.9705 10.8839 27.7302C11.1183 27.4899 11.25 27.164 11.25 26.8242V24.9023ZM7.5 26.8242V24.9023H10V26.8242H7.5Z" fill="black"/>
<path d="M17.5 29.3867H15C14.6685 29.3867 14.3505 29.5217 14.1161 29.762C13.8817 30.0023 13.75 30.3282 13.75 30.668V32.5898C13.75 32.9297 13.8817 33.2555 14.1161 33.4958C14.3505 33.7361 14.6685 33.8711 15 33.8711H17.5C17.8315 33.8711 18.1495 33.7361 18.3839 33.4958C18.6183 33.2555 18.75 32.9297 18.75 32.5898V30.668C18.75 30.3282 18.6183 30.0023 18.3839 29.762C18.1495 29.5217 17.8315 29.3867 17.5 29.3867ZM15 32.5898V30.668H17.5V32.5898H15Z" fill="black"/>
<path d="M22.5 22.3398H25C25.3315 22.3398 25.6495 22.2049 25.8839 21.9646C26.1183 21.7243 26.25 21.3984 26.25 21.0586V19.1367C26.25 18.7969 26.1183 18.471 25.8839 18.2307C25.6495 17.9905 25.3315 17.8555 25 17.8555H22.5C22.1685 17.8555 21.8505 17.9905 21.6161 18.2307C21.3817 18.471 21.25 18.7969 21.25 19.1367V21.0586C21.25 21.3984 21.3817 21.7243 21.6161 21.9646C21.8505 22.2049 22.1685 22.3398 22.5 22.3398ZM22.5 19.1367H25V21.0586H22.5V19.1367Z" fill="black"/>
<path d="M21.25 26.8242C21.25 27.164 21.3817 27.4899 21.6161 27.7302C21.8505 27.9705 22.1685 28.1055 22.5 28.1055C22.6658 28.1055 22.8247 28.038 22.9419 27.9178C23.0592 27.7977 23.125 27.6347 23.125 27.4648C23.125 27.2949 23.0592 27.132 22.9419 27.0119C22.8247 26.8917 22.6658 26.8242 22.5 26.8242V24.9023H25C25.1658 24.9023 25.3247 24.8348 25.4419 24.7147C25.5592 24.5946 25.625 24.4316 25.625 24.2617C25.625 24.0918 25.5592 23.9289 25.4419 23.8087C25.3247 23.6886 25.1658 23.6211 25 23.6211H22.5C22.1685 23.6211 21.8505 23.7561 21.6161 23.9964C21.3817 24.2366 21.25 24.5625 21.25 24.9023V26.8242Z" fill="black"/>
<path d="M10 29.3867H7.5C7.16848 29.3867 6.85054 29.5217 6.61612 29.762C6.3817 30.0023 6.25 30.3282 6.25 30.668V32.5898C6.25 32.9297 6.3817 33.2555 6.61612 33.4958C6.85054 33.7361 7.16848 33.8711 7.5 33.8711H10C10.3315 33.8711 10.6495 33.7361 10.8839 33.4958C11.1183 33.2555 11.25 32.9297 11.25 32.5898V30.668C11.25 30.3282 11.1183 30.0023 10.8839 29.762C10.6495 29.5217 10.3315 29.3867 10 29.3867ZM7.5 32.5898V30.668H10V32.5898H7.5Z" fill="black"/>
<path d="M30.625 23.6211C29.018 23.6211 27.4471 24.1095 26.111 25.0246C24.7748 25.9397 23.7334 27.2404 23.1185 28.7622C22.5035 30.2839 22.3426 31.9585 22.6561 33.574C22.9696 35.1895 23.7435 36.6734 24.8798 37.8381C26.0161 39.0028 27.4638 39.796 29.0399 40.1173C30.616 40.4387 32.2497 40.2737 33.7343 39.6434C35.219 39.0131 36.4879 37.9456 37.3807 36.5761C38.2735 35.2065 38.75 33.5964 38.75 31.9492C38.7475 29.7412 37.8907 27.6244 36.3675 26.0632C34.8443 24.5019 32.7791 23.6236 30.625 23.6211ZM30.625 38.9961C29.2653 38.9961 27.9361 38.5828 26.8055 37.8085C25.6749 37.0342 24.7937 35.9336 24.2733 34.6459C23.753 33.3583 23.6168 31.9414 23.8821 30.5744C24.1474 29.2075 24.8022 27.9518 25.7636 26.9663C26.7251 25.9808 27.9501 25.3097 29.2838 25.0377C30.6174 24.7658 31.9997 24.9054 33.256 25.4388C34.5122 25.9721 35.5859 26.8753 36.3414 28.0342C37.0968 29.193 37.5 30.5555 37.5 31.9492C37.4979 33.8175 36.7728 35.6086 35.484 36.9297C34.1951 38.2507 32.4477 38.9939 30.625 38.9961Z" fill="black"/>
<path d="M34.2353 29.2638L29.374 34.2466L27.1647 31.9814C27.0468 31.8647 26.8889 31.8001 26.725 31.8015C26.5612 31.803 26.4044 31.8704 26.2885 31.9892C26.1726 32.1079 26.1069 32.2686 26.1055 32.4366C26.1041 32.6045 26.1671 32.7664 26.2809 32.8872L28.9322 35.6054C29.0494 35.7255 29.2083 35.7929 29.374 35.7929C29.5398 35.7929 29.6987 35.7255 29.8159 35.6054L35.119 30.1697C35.2329 30.0488 35.2959 29.887 35.2945 29.719C35.293 29.5511 35.2273 29.3904 35.1114 29.2716C34.9955 29.1528 34.8388 29.0855 34.6749 29.084C34.511 29.0825 34.3532 29.1471 34.2353 29.2638Z" fill="black"/>
</svg>
