<svg width="23" height="23" viewBox="0 0 23 23" fill="none" xmlns="http://www.w3.org/2000/svg">
<g clip-path="url(#clip0_1348_3877)">
<path d="M18.2096 7.66667H4.79297C3.20214 7.66667 1.91797 8.95083 1.91797 10.5417V16.2917H5.7513V20.125H17.2513V16.2917H21.0846V10.5417C21.0846 8.95083 19.8005 7.66667 18.2096 7.66667ZM15.3346 18.2083H7.66797V13.4167H15.3346V18.2083ZM18.2096 11.5C17.6826 11.5 17.2513 11.0687 17.2513 10.5417C17.2513 10.0146 17.6826 9.58333 18.2096 9.58333C18.7367 9.58333 19.168 10.0146 19.168 10.5417C19.168 11.0687 18.7367 11.5 18.2096 11.5ZM17.2513 2.875H5.7513V6.70833H17.2513V2.875Z" fill="black"/>
</g>
<defs>
<clipPath id="clip0_1348_3877">
<rect width="23" height="23" fill="white"/>
</clipPath>
</defs>
</svg>
